<svg id="White_Logos" data-name="White Logos" xmlns="http://www.w3.org/2000/svg" viewBox="0 0 300 200"><defs><style>.cls-1{fill:#fff;}</style></defs><title>finkraft</title><g id="primary_logo" data-name="primary logo"><path class="cls-1" d="M50.09,130.7H39.3V86.15H20.49V130.7H9.7V86.15H4.06V78.53H9.7V77.34c0-1.88,0-4.36.2-6.14,1-9.7,7.42-15.15,22.57-15.15a34.77,34.77,0,0,1,6.83.6v8.12c-13.26-1-17.72,1.18-18.51,7a41,41,0,0,0-.3,5v1.78h29.6Z"/><path class="cls-1" d="M110.78,101.1v29.6H99.89V102.29c0-2.48,0-4.75-.2-7.43C99.2,88.92,96,84.76,88.6,84.76S74.94,90.7,74.94,107.14V130.7H64.05V78.13H74.94v8.71l3.56-6c4.16-3.16,8-4,13.27-4,11.29,0,17.72,5.84,18.71,15C110.68,94.47,110.78,96.84,110.78,101.1Z"/><path class="cls-1" d="M126.42,109.42V130.7h-2.18V57.94h2.18v48.9l30.69-28.21h3.27l-27.72,25.24,27.82,26.83h-3.27l-26.33-25.34Z"/><path class="cls-1" d="M187.9,77.34v2c-9.51-.79-16.14,5.64-16.14,22.87V130.7h-2.18V78.63h2.18V89.81l2.08-5.94a14,14,0,0,1,11.78-6.63A16.65,16.65,0,0,1,187.9,77.34Z"/><path class="cls-1" d="M227.79,117.93l-2.27,5.25c-3.67,5.84-9.8,8.91-16.83,8.91-9.9,0-16-4.66-16-14,0-12.18,15.44-17.43,31.68-17.43h3.36V98c0-2.47,0-4.45-.19-6.73-.7-7.82-5.84-12-14.36-12-7.32,0-15.14,3.86-16.33,13.56h-2.18c.59-8.71,8.22-15.64,18.51-15.64S229,82.29,229.67,91c.2,2.67.2,4.06.2,6.83v16c0,5.94.3,10,.89,16.83h-2.27Zm-.1-7.92v-7.13c-15.24-1-32.66,3.27-32.66,15.15,0,7.23,4.45,12,13.95,12C220.17,130,227.69,120.31,227.69,110Z"/><path class="cls-1" d="M247.2,70.71V79h10.59V81.1H247.2v49.6H245V81.1h-5.64V79H245V70.71a51.52,51.52,0,0,1,.2-5.25c.59-6.53,4.95-9.41,9-9.41a17.46,17.46,0,0,1,4.65.5v2.08c-7.72-1.88-11,1.88-11.48,7.13A47,47,0,0,0,247.2,70.71Z"/><path class="cls-1" d="M281.35,129.31v1.79a38.48,38.48,0,0,1-5,.29c-4.65,0-7.13-2.17-7.52-6.73-.2-2.38-.2-4.06-.2-7V80.8h-6.24V79h6.24V68.33h2.18V79h10.19V80.8H270.86V118c0,2.77,0,4.25.1,5.64C271.35,128.82,273.63,130.4,281.35,129.31Z"/><path class="cls-1" d="M296.2,127.33a4.7,4.7,0,1,1-4.65-4.65A4.55,4.55,0,0,1,296.2,127.33Z"/></g></svg>